<?xml version="1.0" encoding="UTF-8" standalone="no"?>
<!-- Created with Inkscape (http://www.inkscape.org/) -->

<svg
   xmlns:dc="http://purl.org/dc/elements/1.1/"
   xmlns:cc="http://creativecommons.org/ns#"
   xmlns:rdf="http://www.w3.org/1999/02/22-rdf-syntax-ns#"
   xmlns:svg="http://www.w3.org/2000/svg"
   xmlns="http://www.w3.org/2000/svg"
   xmlns:sodipodi="http://sodipodi.sourceforge.net/DTD/sodipodi-0.dtd"
   xmlns:inkscape="http://www.inkscape.org/namespaces/inkscape"
   width="210mm"
   height="297mm"
   viewBox="0 0 210 297"
   version="1.1"
   id="svg8"
   inkscape:version="0.92.3 (2405546, 2018-03-11)"
   sodipodi:docname="drawing.svg">
  <defs
     id="defs2" />
  <sodipodi:namedview
     id="base"
     pagecolor="#ffffff"
     bordercolor="#666666"
     borderopacity="1.0"
     inkscape:pageopacity="0.0"
     inkscape:pageshadow="2"
     inkscape:zoom="0.7"
     inkscape:cx="161.12636"
     inkscape:cy="470.82355"
     inkscape:document-units="mm"
     inkscape:current-layer="layer1"
     showgrid="false"
     inkscape:object-nodes="false"
     inkscape:snap-nodes="false"
     inkscape:snap-global="false"
     inkscape:window-width="1920"
     inkscape:window-height="1017"
     inkscape:window-x="-8"
     inkscape:window-y="-8"
     inkscape:window-maximized="1" />
  <metadata
     id="metadata5">
    <rdf:RDF>
      <cc:Work
         rdf:about="">
        <dc:format>image/svg+xml</dc:format>
        <dc:type
           rdf:resource="http://purl.org/dc/dcmitype/StillImage" />
        <dc:title></dc:title>
      </cc:Work>
    </rdf:RDF>
  </metadata>
  <g
     inkscape:label="Layer 1"
     inkscape:groupmode="layer"
     id="layer1">
    <g
       id="g1015"
       style="fill:none;stroke:#ffeeaa;stroke-width:1.70000005;stroke-miterlimit:4;stroke-dasharray:none;stroke-opacity:1"
       transform="translate(110.74702,-1.1339286)">
      <path
         inkscape:connector-curvature="0"
         id="path867"
         d="m -77.485119,112.54763 c 5.3891,-5.01039 11.46603,-9.20237 17.61751,-13.210952 1.34329,-3.3268 2.78064,-10.90643 2.96758,-11.93783 -2.79481,4.40561 -4.92576,9.19707 -7.99097,13.443362 -3.89225,8.47425 -6.6979,17.53233 -11.9616,25.32221 2.33905,-8.81649 9.23497,-15.34761 14.44061,-22.55281 1.142,-2.33998 7.15458,-8.060822 7.49538,-3.10977 -3.06229,5.64354 -7.87344,10.06643 -11.74659,15.06758 -0.3036,3.0264 6.61292,-7.51654 7.79656,-2.88583 -1.21761,3.15027 -7.28826,12.47204 -0.20539,11.20741 3.63513,-2.82267 6.00211,-6.98376 9.36713,-10.14988 2.00514,-1.67607 3.68549,-7.16586 0.49982,-2.86585 -2.60306,2.6592 -8.14495,9.41407 -4.34312,11.80534 3.18018,-2.92215 7.34553,-6.48865 7.03538,-11.24424 -1.36686,3.85351 -4.46708,8.28684 -3.27477,12.27879 5.08368,-0.10959 7.42222,-6.04948 10.92616,-9.06744 1.70495,-3.24169 7.12897,-4.92019 5.55764,0.62185 -0.83533,4.41049 -5.39639,7.97207 -9.90983,7.09304 6.43877,-1.05621 13.13698,-3.11892 18.08174,-7.53667 4.194,-4.6983 4.8229,-11.3336 8.1601,-16.521252 -3.52427,2.526242 -4.74276,8.254982 -6.5507,12.425012 -1.40061,3.7324 -4.70114,8.50195 -2.64973,12.2065 2.47352,-4.88065 8.14508,-11.83292 12.5792,-12.10757 -0.99547,2.96853 -6.28445,10.09827 -0.49117,10.55736 3.76151,-2.48804 6.9359295,-5.92291 10.0019695,-9.24545 2.06237,-2.02917 3.15172003,-10.83803 -0.45277,-4.81979 -2.43497,3.33181 -8.0167495,13.86455 -0.0315,12.73716 3.86742003,-2.4654 6.38664,-6.77042 10.55402,-8.99537 4.9759915,-1.74622 7.0131015,-8.61459 5.8779115,-12.617302 -3.4525905,5.385022 -7.0835415,10.804172 -9.8686915,16.589272 -2.92819997,4.02004 1.28069,9.40645 4.50723,4.22976 4.1968715,-4.68985 8.0438015,-9.78924 10.1388815,-15.79293 1.83752,-2.60272 1.47238,-6.249922 -0.74336,-1.99943 -2.39196,5.2694 -6.6387405,9.96526 -6.9421205,15.9567 -0.0895,5.40284 4.7826105,1.50202 6.1617005,-0.72323"
         style="fill:none;stroke:#ffeeaa;stroke-width:1.70000005;stroke-linecap:butt;stroke-linejoin:miter;stroke-miterlimit:4;stroke-dasharray:none;stroke-opacity:1" />
      <path
         inkscape:connector-curvature="0"
         id="path991"
         d="m -48.380964,148.83333 c -5.19114,-12.44305 13.72197,-10.29073 20.336955,-13.68747 7.530285,-2.66636 3.335543,-16.29429 -1.404128,-6.16405 -0.502158,7.30486 8.427351,25.28958 -6.579815,19.80356 -7.430552,-0.0464 -8.987162,-16.20726 -2.058041,-7.01554 6.644049,7.38663 16.943509,-0.76321 22.159146,-0.67638 -1.742378,6.83938 -4.688289,6.58219 -0.115684,0.36631 8.1785877,-6.41243 -1.604021,13.36651 5.342227,4.63267 2.8364867,-6.16379 8.1238267,-7.69201 3.9579597,0.0824 4.686869,12.97583 14.269234,-16.37623 7.39249204,-2.01176 1.65502696,12.19607 12.85058026,-4.8832 12.83051326,-10.88335 1.309015,-11.04593 -9.8780223,16.40136 0.971715,12.71514 3.456931,-2.65872 8.540997,-18.26493 6.080417,-15.16119 -0.502786,4.40056 -5.049377,20.16912 0.14752,10.13767 6.87988,-3.91116 -0.920775,11.86938 7.43798,7.12093 9.358676,-6.6379 -0.47896,-12.41318 -8.041786,-9.81725 -4.558728,0.26408 -9.088697,0.89408 -13.6509223,1.10891"
         style="fill:none;stroke:#ffeeaa;stroke-width:1.70000005;stroke-linecap:butt;stroke-linejoin:miter;stroke-miterlimit:4;stroke-dasharray:none;stroke-opacity:1" />
    </g>
  </g>
</svg>
